<?xml version="1.0" encoding="UTF-8"?>
<svg id="_Слой_1" data-name="Слой 1" xmlns="http://www.w3.org/2000/svg" viewBox="0 0 74.59 67.73">
	<defs>
		<style>
			.cls-1 {
			stroke-width: 0px;
			}
		</style>
	</defs>
	<path class="cls-1" d="M25.7,47.12c.16.16.38.25.6.25s.44-.09.6-.25l12.14-12.13c.16-.16.25-.38.25-.6s-.09-.45-.25-.61l-12.12-12.12c-.16-.16-.38-.25-.6-.25s-.44.09-.6.25l-.89.89c-.33.33-.33.87,0,1.21l10.63,10.63-10.64,10.64c-.16.16-.25.38-.25.6s.09.44.25.6l.89.89Z"/>
	<path class="cls-1" d="M35.7,47.12c.16.16.38.25.6.25s.44-.09.6-.25l12.14-12.13c.16-.16.25-.38.25-.6s-.09-.45-.25-.61l-12.12-12.12c-.16-.16-.38-.25-.6-.25s-.44.09-.6.25l-.89.89c-.33.33-.33.87,0,1.21l10.63,10.63-10.64,10.64c-.16.16-.25.38-.25.6s.09.44.25.6l.89.89Z"/>
</svg>