<svg width="91" height="91" viewBox="0 0 91 91" fill="none" xmlns="http://www.w3.org/2000/svg">
<mask id="mask0_2010_51" style="mask-type:luminance" maskUnits="userSpaceOnUse" x="0" y="0" width="91" height="91">
<path d="M91 0H0V91H91V0Z" fill="white"/>
</mask>
<g mask="url(#mask0_2010_51)">
<path d="M45.5 0L46.1297 39.6154C46.1552 41.2089 48.0712 42.0026 49.216 40.8937L77.6735 13.3266L50.1064 41.7842C48.9976 42.9289 49.7911 44.845 51.3845 44.8703L91 45.5L51.3845 46.1297C49.7911 46.1552 48.9976 48.0712 50.1064 49.216L77.6735 77.6735L49.216 50.1064C48.0712 48.9976 46.1552 49.7911 46.1297 51.3845L45.5 91L44.8703 51.3845C44.845 49.7911 42.9289 48.9976 41.7842 50.1064L13.3266 77.6735L40.8937 49.216C42.0026 48.0712 41.2089 46.1552 39.6154 46.1297L0 45.5L39.6154 44.8703C41.2089 44.845 42.0026 42.9289 40.8937 41.7842L13.3266 13.3266L41.7842 40.8937C42.9289 42.0026 44.845 41.2089 44.8703 39.6154L45.5 0Z" fill="#3D3D3D"/>
</g>
</svg>
